<?xml version="1.0" standalone="no"?>
<!DOCTYPE svg PUBLIC "-//W3C//DTD SVG 20010904//EN"
 "http://www.w3.org/TR/2001/REC-SVG-20010904/DTD/svg10.dtd">
<svg version="1.0" xmlns="http://www.w3.org/2000/svg"
 width="250.000000pt" height="250.000000pt" viewBox="0 0 250.000000 250.000000"
 preserveAspectRatio="xMidYMid meet">

<g transform="translate(0.000000,250.000000) scale(0.100000,-0.100000)"
fill="#000000" stroke="none">
<path d="M1225 2284 c-11 -2 -45 -9 -75 -15 -30 -6 -93 -29 -139 -51 -161 -77
-300 -252 -336 -426 -51 -240 40 -496 225 -636 l60 -44 -77 -42 c-262 -141
-430 -396 -458 -692 l-7 -78 79 0 80 0 7 70 c19 206 141 409 315 524 129 85
243 119 396 119 358 1 659 -264 706 -620 l13 -93 79 0 79 0 -7 68 c-11 114
-35 203 -80 298 -88 189 -220 325 -403 418 l-53 27 53 39 c200 150 294 436
222 680 -48 165 -176 317 -325 388 -46 22 -106 45 -132 51 -55 13 -191 22
-222 15z m174 -169 c301 -71 457 -400 320 -673 -82 -165 -239 -262 -423 -262
-195 0 -349 98 -434 278 -32 68 -37 87 -40 172 -3 78 0 106 18 160 45 133 125
227 244 285 111 55 201 66 315 40z"/>
</g>
</svg>
